PathFileType	4	(X/Y/Z)	C:\Users\Graham\Documents\MATLAB\MOtoNMS_v2_2\MyData\ElaboratedData\S1\17-05-18\dynamicElaborations\rightStSt\\NE2\NE2.trc
DataRate	CameraRate	NumFrames	NumMarkers	Units	OrigDataRate	DataStartFrame
100	100	8	29	mm	100	4
Frame#	Time	V_Sacral			R_ASIS			L_ASIS			R_Knee_Lat			R_Thigh_Upper			R_Thigh_Front			R_Thigh_Rear			L_Knee_Lat			L_Thigh_Upper			L_Thigh_Front			L_Thigh_Rear			R_Ankle_Lat			R_Shank_Upper			R_Shank_Front			R_Shank_Rear			L_Ankle_Lat			L_Shank_Upper			L_Shank_Front			L_Shank_Rear			R_Heel			R_MTP1			R_MTP5			L_Heel			L_MTP1			L_MTP5			Clavicle			C7			R_Acromium			L_Acromium		
		X1	Y1	Z1	X2	Y2	Z2	X3	Y3	Z3	X4	Y4	Z4	X5	Y5	Z5	X6	Y6	Z6	X7	Y7	Z7	X8	Y8	Z8	X9	Y9	Z9	X10	Y10	Z10	X11	Y11	Z11	X12	Y12	Z12	X13	Y13	Z13	X14	Y14	Z14	X15	Y15	Z15	X16	Y16	Z16	X17	Y17	Z17	X18	Y18	Z18	X19	Y19	Z19	X20	Y20	Z20	X21	Y21	Z21	X22	Y22	Z22	X23	Y23	Z23	X24	Y24	Z24	X25	Y25	Z25	X26	Y26	Z26	X27	Y27	Z27	X28	Y28	Z28	X29	Y29	Z29	

64	0.630000	-88.292043	1040.778947	53.419138	114.209326	1008.414667	176.727850	106.894727	1021.008120	-56.449169	-66.310974	520.941950	207.471744	97.151379	845.875906	215.469454	95.784481	721.167794	179.802995	39.271887	727.005195	233.690044	186.274972	537.799521	-107.493870	163.674970	870.005360	-82.860955	199.613941	757.557016	-34.659686	182.499266	749.958178	-117.721483	-212.750713	118.314227	200.047848	-81.582983	305.551694	180.886729	-148.173390	212.853902	125.739255	-148.088572	205.006050	206.735984	292.193794	110.570299	-113.631152	285.973699	350.784964	-84.372456	294.320847	231.880460	-39.031316	284.297732	231.811460	-119.900200	-296.667811	69.162988	152.855252	-70.690078	57.504648	107.148755	-74.496542	49.756750	183.234084	234.255689	48.500136	-65.998281	454.855155	117.240155	-38.011363	440.947563	105.113308	-126.854938	136.917934	1436.296669	63.442923	1.514578	1550.737770	54.843932	82.680640	1467.640422	256.778101	84.514753	1469.922832	-149.653280	
65	0.640000	-87.604478	1039.721020	51.682433	114.784340	1007.244956	175.183539	107.905991	1020.220274	-57.954382	-66.528414	519.868511	206.728269	97.244095	844.801556	214.096837	95.940317	720.003839	178.694539	39.296991	725.971181	232.412163	189.706848	537.481413	-107.655708	166.201463	870.798632	-83.035763	202.380514	758.537345	-34.728627	186.338948	750.819040	-118.117391	-220.638896	119.964911	200.345017	-85.688414	304.549864	180.531937	-154.277580	213.158005	125.626295	-154.153966	205.393731	206.623349	287.272602	108.500157	-112.821316	285.963987	348.213883	-83.271810	291.507562	229.144081	-37.940139	282.087331	229.292978	-118.847172	-305.284534	72.038194	153.112825	-79.663056	57.499340	107.517256	-83.689597	49.519527	183.172010	227.245010	49.077404	-65.599776	449.375545	110.739329	-36.652962	435.418637	99.185093	-125.549650	137.599143	1435.138947	60.649904	2.121957	1549.657310	51.831200	83.323734	1466.830035	253.888571	84.991694	1468.140044	-152.505729	
66	0.650000	-86.782014	1038.794341	49.830703	115.505288	1006.245282	173.642529	109.142661	1019.702431	-59.447370	-66.219762	518.828249	205.911326	97.615305	843.857148	212.663704	96.453096	719.007918	177.446159	39.665031	725.030955	231.003750	193.113479	537.401463	-107.878787	168.795797	871.580973	-83.410671	205.374546	759.571206	-34.987897	189.772613	751.517094	-118.557679	-228.327241	121.981831	200.600318	-89.472691	303.659640	180.147815	-160.114377	213.699773	125.468853	-159.993720	206.009872	206.468047	281.742855	106.594390	-112.218154	285.683654	345.747238	-82.256863	288.179952	226.524680	-36.999224	279.483284	226.938330	-117.947588	-313.749521	75.469252	153.307813	-88.565293	57.475910	107.942426	-92.882333	49.292050	183.054127	219.419860	50.035113	-65.490438	443.162674	103.763025	-35.316214	429.191887	92.845554	-124.304708	138.312093	1434.148482	57.769253	2.746886	1548.733333	48.737415	84.000363	1466.160043	250.909119	85.504461	1466.498290	-155.436948	
67	0.660000	-85.834740	1038.026801	47.878461	116.362070	1005.463697	172.118744	110.552989	1019.438467	-60.914201	-65.311754	517.854571	205.070687	98.291216	843.084404	211.177124	97.367346	718.224435	176.055736	40.426295	724.213783	229.471862	196.389218	537.559377	-108.212991	171.367612	872.295350	-83.984378	208.468813	760.577369	-35.438996	192.710926	752.044114	-119.038136	-235.770527	124.421833	200.790519	-92.887987	302.931553	179.751299	-165.623993	214.534874	125.275244	-165.565486	206.909410	206.275424	275.845821	104.939259	-111.876100	285.171216	343.498474	-81.464422	284.518731	224.170612	-36.310054	276.620171	224.857513	-117.299652	-322.014326	79.538566	153.401834	-97.388722	57.399001	108.416568	-102.070437	49.067306	182.876984	211.194179	51.265632	-65.642904	436.499818	96.750796	-34.148717	422.535866	86.448708	-123.245342	139.044417	1433.355954	54.816093	3.386717	1547.996013	45.575988	84.696902	1465.649609	247.856001	86.049090	1465.025325	-158.435077	
68	0.670000	-84.773554	1037.445103	45.847112	117.334960	1004.944918	170.610768	112.091809	1019.413504	-62.354388	-63.715667	516.975839	204.275677	99.289259	842.527681	209.641258	98.719740	717.692749	174.528298	41.633639	723.546849	227.835263	199.456372	537.920860	-108.686627	173.840615	872.915437	-84.728402	211.527965	761.503563	-36.045832	195.160968	752.430591	-119.544184	-242.893665	127.328479	200.894960	-95.866344	302.413805	179.376885	-170.713842	215.706324	125.064638	-170.805218	208.144790	206.058761	269.713366	103.571668	-111.800751	284.437069	341.517711	-80.982621	280.641273	222.160893	-35.924406	273.568409	223.091483	-116.953193	-329.999628	84.323926	153.357417	-106.122256	57.230064	108.920344	-111.236628	48.832206	182.640614	202.855812	52.630413	-65.985432	429.585143	90.081606	-33.278401	415.616588	80.307371	-122.472207	139.782420	1432.788329	51.806474	4.033767	1547.468586	42.361108	85.400021	1465.322013	244.747250	86.618389	1463.752574	-161.486696	
69	0.680000	-83.609733	1037.069035	43.759720	118.395253	1004.723189	169.102505	113.728557	1019.616660	-63.780988	-61.335249	516.211464	203.605625	100.615577	842.227716	208.056447	100.536120	717.440924	172.878157	43.338365	723.051324	226.125105	202.261633	538.419646	-109.299715	176.159142	873.437959	-85.601184	214.423005	762.322838	-36.751642	197.200859	752.721747	-120.061528	-249.587468	130.725525	200.898969	-98.321189	302.148211	179.076072	-175.257891	217.237717	124.865159	-175.626643	209.761806	205.838717	263.378193	102.487557	-111.951391	283.461106	339.796004	-80.830929	276.591401	220.505205	-35.835383	270.337682	221.620223	-116.901474	-337.590330	89.893326	153.144506	-114.751335	56.934900	109.422861	-120.348561	48.569601	182.348370	194.554300	53.988885	-66.426297	422.524834	84.038456	-32.776464	408.505806	74.673179	-122.031028	140.511828	1432.465004	48.756465	4.674798	1547.163831	39.106154	86.094947	1465.202846	241.600678	87.204429	1462.712334	-164.577209	
70	0.690000	-82.356433	1036.906900	41.636086	119.506560	1004.815789	167.567186	115.444685	1020.037199	-65.217502	-58.077399	515.569333	203.137246	102.263875	842.215246	206.418756	102.831893	717.481308	171.130735	45.586248	722.739300	224.383672	204.765744	538.968824	-110.024843	178.292056	873.874705	-86.562601	217.045925	763.026975	-37.500793	198.946343	752.959803	-120.588092	-255.710505	134.613302	200.797427	-100.152207	302.166395	178.912138	-179.103474	219.129660	124.709607	-179.924329	211.795505	205.641357	256.803055	101.655131	-112.252519	282.196919	338.282086	-80.958802	272.346053	219.158759	-35.982794	266.891722	220.382883	-117.086341	-344.635857	96.301224	152.747453	-123.256930	56.493053	109.885129	-129.358932	48.263295	182.006631	186.320136	55.222268	-66.876482	415.345742	78.796528	-32.639170	401.206593	69.727535	-121.899461	141.218459	1432.395301	45.681913	5.292216	1547.082193	35.822317	86.763030	1465.316542	238.432336	87.801215	1461.933158	-167.691461	
71	0.700000	-81.031737	1036.953116	39.489875	120.626558	1005.218685	165.974072	117.224581	1020.657873	-66.692035	-53.864318	515.045120	202.931520	104.215076	842.505802	204.720842	105.614834	717.809406	169.323787	48.413067	722.612506	222.661374	206.930380	539.478380	-110.815758	180.232657	874.245948	-87.585756	219.321551	763.619618	-38.259186	200.515494	753.175182	-121.142851	-261.098955	138.969503	200.597543	-101.253801	302.486398	178.950519	-182.086449	221.360663	124.629114	-183.580957	214.266451	205.494593	249.918100	101.028519	-112.611856	280.580953	336.905105	-81.263903	267.836130	218.045597	-36.271836	263.167950	219.302564	-117.415690	-350.957105	103.586835	152.170511	-131.613627	55.907625	110.266944	-138.208494	47.906111	181.624704	178.104295	56.248519	-67.266302	408.021127	74.430227	-32.793705	393.686148	65.579310	-121.995564	141.888773	1432.577500	42.598946	5.866519	1547.211709	32.518094	87.379952	1465.681804	235.256067	88.406663	1461.434502	-170.814274	
